<svg width="580" height="491" viewBox="0 0 580 491" fill="none" xmlns="http://www.w3.org/2000/svg">
<path opacity="0.21" d="M54.0592 471.768C-22.701 404.755 -17.015 265.043 66.6496 188.283C194.673 70.8244 564.155 117.583 579.197 232.552C601.941 406.38 134.534 542.024 54.0592 471.768Z" fill="#535461" fill-opacity="0.18"/>
<path d="M376.023 9.53021H128V376.549H376.023V9.53021Z" fill="#535461"/>
<path d="M308.431 386.045L128 376.548V9.52934L308.431 0.0326538V386.045Z" fill="#3EC28F"/>
<path d="M293.349 212.871C294.583 212.871 295.583 211.871 295.583 210.637C295.583 209.402 294.583 208.402 293.349 208.402C292.115 208.402 291.114 209.402 291.114 210.637C291.114 211.871 292.115 212.871 293.349 212.871Z" fill="#535461"/>
<path d="M293.349 210.972L294.896 213.653L296.449 216.335H293.349H290.249L291.801 213.653L293.349 210.972Z" fill="#535461"/>
<path d="M316.252 386.046L305.203 386.012L305.638 0.0334473H316.252V386.046Z" fill="#3EC28F"/>
<g opacity="0.1">
<path opacity="0.1" d="M316.375 386.013H305.203L305.761 0H316.375V386.013Z" fill="white"/>
</g>
<path opacity="0.1" d="M293.349 201.698C297.36 201.698 300.611 198.447 300.611 194.436C300.611 190.426 297.36 187.174 293.349 187.174C289.338 187.174 286.087 190.426 286.087 194.436C286.087 198.447 289.338 201.698 293.349 201.698Z" fill="black"/>
<path d="M293.349 200.581C297.36 200.581 300.611 197.33 300.611 193.319C300.611 189.308 297.36 186.057 293.349 186.057C289.338 186.057 286.087 189.308 286.087 193.319C286.087 197.33 289.338 200.581 293.349 200.581Z" fill="#535461"/>
<path d="M321.257 110.357V114.357L338.161 103.687L336.384 101.453L335.558 101.939L322.48 82.7776V71.6609L317.503 72.1078V70.3314C304.376 55.2149 303.018 72.1078 305.733 77.0014C308.448 81.895 313.414 85.4702 313.414 85.4702C316.207 87.7997 321.023 105.396 322.201 109.81L321.257 110.357Z" fill="url(#paint0_linear)"/>
<path d="M430.923 101.469L428.616 99.9051H428.516L426.421 93.682L425.661 93.71L423.058 88.5091C425.301 87.4011 427.334 85.9095 429.063 84.1015C433.13 80.0906 436.839 73.2083 435.923 61.572C435.733 59.1643 439.705 52.93 427.817 49.69C427.464 46.3175 426.071 43.1382 423.831 40.5921C421.591 38.0461 418.616 36.2591 415.316 35.4785C410.722 34.3372 405.978 33.9225 401.256 34.2495C392.133 35.026 384.134 41.7295 384.134 50.8855C384.134 50.8855 381.38 51.7346 381.229 60.7676H381.581C379.929 67.4412 380.993 74.4979 384.541 80.387C388.089 86.276 393.829 90.5155 400.501 92.1737L400.658 93.1122C400.82 93.2016 400.987 93.2798 401.155 93.358L402.831 97.7265L397.418 100.978L386.558 101.335C381.552 101.508 376.616 102.565 371.979 104.458C362.035 108.452 343.931 112.284 343.931 112.284L338.16 104.033L321.268 115.675L332.384 132.652C334.161 133.996 336.104 135.104 338.166 135.948H338.216H338.278L338.78 136.149C341.529 137.214 344.375 138.011 347.277 138.529C353.98 139.875 364.035 140.875 376.621 138.981L376.531 138.953L376.844 138.914L380.62 215.446H380.866L379.062 228.552C361.27 250.824 356.377 315.307 356.377 315.307L382.704 391.007C382.207 393.168 380.207 397.839 372.169 401.112C361.393 405.497 379.81 408.676 379.81 408.676L396.569 403.531C397.954 406.324 405.736 410.006 405.736 410.006L439.079 409.117V392.66H438.632C438.632 392.66 441.744 362.874 439.52 356.651C437.297 350.428 439.52 320.195 439.52 320.195L441.297 255.729C447.52 243.283 447.52 232.613 442.632 222.385C441.16 219.278 440.216 215.947 439.839 212.53C441.179 209.374 441.744 204.19 440.397 195.71C436.398 170.493 449.29 145.243 449.29 145.243C450.806 136.952 449.877 128.398 446.615 120.625C443.354 112.853 437.902 106.197 430.923 101.469ZM411.037 396.492L407.283 383.024L406.428 383.264L390.162 314.86L405.278 283.297V313.53L413.724 372.661V392.66C413.188 394.156 412.26 395.479 411.037 396.492Z" fill="url(#paint1_linear)"/>
<path d="M324.614 77.5655V88.2633L337.334 106.899L324.614 115.172C324.614 115.172 318.961 93.3859 315.917 90.8218C315.917 90.8218 311.129 87.403 308.521 82.7049C305.912 78.0068 307.213 61.7731 319.832 76.2974V78.0068L324.614 77.5655Z" fill="#FDA57D"/>
<path d="M425.863 103.033L420.835 92.9782C420.687 92.6827 420.463 92.4318 420.186 92.2512C419.91 92.0706 419.59 91.9667 419.26 91.9503L400.167 90.9559C399.856 90.9396 399.546 91.0014 399.265 91.1356C398.984 91.2698 398.741 91.4722 398.558 91.7243C398.375 91.9765 398.259 92.2703 398.219 92.579C398.179 92.8878 398.216 93.2017 398.329 93.4921L403.261 106.246C403.407 106.623 403.672 106.942 404.016 107.156C404.359 107.37 404.763 107.466 405.166 107.43L424.393 105.72C424.692 105.688 424.979 105.584 425.229 105.417C425.479 105.25 425.685 105.025 425.83 104.761C425.974 104.497 426.052 104.202 426.058 103.901C426.064 103.6 425.997 103.303 425.863 103.033Z" fill="#FDA57D"/>
<path d="M424.472 98.7097L427.717 108.234L394.357 107.039L407.171 99.3466L424.472 98.7097Z" fill="#EDEEF9"/>
<path d="M339.68 108.318L337.971 106.184L323.447 114.726V118.575L339.68 108.318Z" fill="#EDEEF9"/>
<path d="M437.811 202.821C437.811 202.821 435.37 212.547 440.046 222.373C444.721 232.2 444.744 242.45 438.767 254.411L437.074 316.351C437.074 316.351 434.94 345.4 437.074 351.377C439.208 357.355 436.219 385.979 436.219 385.979H412.3V366.762L404.183 309.95V280.901L389.659 311.229L406.311 381.286L384.525 390.258L357.187 311.659C357.187 311.659 361.885 249.718 378.973 228.362L382.179 205.078L437.811 202.821Z" fill="#7A7478"/>
<path d="M436.649 401.788V385.984H412.299C412.299 385.984 410.59 392.392 399.485 393.671C388.38 394.95 404.635 402.643 404.635 402.643L436.649 401.788Z" fill="#333333"/>
<path d="M410.349 391.951L406.11 376.722L382.648 383.253C382.648 383.253 382.721 389.884 372.364 394.096C362.007 398.308 379.71 401.358 379.71 401.358L410.349 391.951Z" fill="#333333"/>
<path opacity="0.1" d="M382.184 206.357L437.811 204.123C437.124 207.439 436.982 210.845 437.392 214.206C434.845 220.195 429.387 218.552 429.387 218.552L380.715 217.055L382.184 206.357Z" fill="black"/>
<path d="M426.611 104.687L428.846 106.19C435.554 110.734 440.796 117.132 443.929 124.605C447.063 132.078 447.953 140.301 446.492 148.271C446.492 148.271 434.102 172.51 437.951 196.749C441.8 220.988 429.41 217.256 429.41 217.256L380.498 215.754L376.867 142.21C376.867 142.21 347.395 146.405 334.15 136.149L323.469 119.837L339.702 108.664L345.255 116.586C345.255 116.586 362.65 112.91 372.202 109.039C376.655 107.218 381.394 106.199 386.201 106.028L426.611 104.687Z" fill="#252A62"/>
<path opacity="0.1" d="M426.181 223.016C426.181 223.016 429.169 237.965 412.087 262.745L426.181 223.016Z" fill="black"/>
<path opacity="0.1" d="M376.632 142.283C376.632 142.283 356.131 135.451 347.16 135.451C338.188 135.451 339.686 139.328 339.686 139.328C339.686 139.328 353.992 145.696 376.632 142.283Z" fill="black"/>
<path opacity="0.1" d="M399.882 91.8106L408.043 92.7882C408.3 92.8218 408.534 93.1458 408.674 93.6485C406.881 96.883 404.635 98.8158 402.2 98.8158C401.329 98.8049 400.477 98.5682 399.725 98.1287L399.099 94.3524C398.887 93.0899 399.306 91.7436 399.882 91.8106Z" fill="black"/>
<path d="M405.574 97.9555C419.333 97.9555 430.488 86.8008 430.488 73.0407C430.488 59.2806 419.333 48.1259 405.574 48.1259C391.814 48.1259 380.66 59.2806 380.66 73.0407C380.66 86.8008 391.814 97.9555 405.574 97.9555Z" fill="#FDA57D"/>
<path opacity="0.1" d="M384.386 58.9353L385.643 60.0861C386.177 60.575 386.579 61.1908 386.813 61.8764C387.046 62.5621 387.103 63.2956 386.977 64.0089C386.852 64.7223 386.549 65.3926 386.096 65.9577C385.643 66.5228 385.055 66.9646 384.386 67.2421C384.386 67.2421 395.558 78.4147 397.1 80.476C398.642 82.5374 396.843 88.0008 396.843 88.0008C396.843 88.0008 391.91 97.0841 417.863 95.006C417.863 95.006 434.99 91.3749 433.175 68.2756C432.991 65.9629 436.806 59.9688 425.388 56.8572C425.049 53.6163 423.711 50.5608 421.56 48.1138C419.408 45.6667 416.549 43.9491 413.378 43.1987C408.965 42.1015 404.407 41.7019 399.87 42.0145C395.64 42.3838 391.701 44.3271 388.834 47.4602C385.967 50.5933 384.379 54.6882 384.386 58.9353Z" fill="black"/>
<path d="M383.844 57.5723C383.844 57.5723 381.202 58.3879 381.051 67.069L384.81 66.812C384.81 66.812 393.513 90.09 392.597 87.0567C389.246 75.8841 395.949 77.9734 397.53 80.0515C399.111 82.1296 397.273 87.5762 397.273 87.5762C397.273 87.5762 392.346 96.6428 418.293 94.5814C418.293 94.5814 435.42 90.9503 433.605 67.851C433.421 65.5383 437.236 59.5442 425.818 56.4327C425.479 53.1917 424.141 50.1363 421.99 47.6892C419.838 45.2422 416.979 43.5246 413.808 42.7742C409.395 41.677 404.837 41.2774 400.3 41.5899C391.53 42.3385 383.844 48.7739 383.844 57.5723Z" fill="#72351C"/>
<path opacity="0.1" d="M157.506 8.99945V378.281" stroke="black" stroke-width="1.18661" stroke-miterlimit="10"/>
<path opacity="0.1" d="M189.347 6.76495V379.398" stroke="black" stroke-width="1.18661" stroke-miterlimit="10"/>
<path opacity="0.1" d="M221.188 5.08905V381.543" stroke="black" stroke-width="1.18661" stroke-miterlimit="10"/>
<path opacity="0.1" d="M253.028 3.41315V383.867" stroke="black" stroke-width="1.18661" stroke-miterlimit="10"/>
<path opacity="0.1" d="M284.869 1.7373V384.337" stroke="black" stroke-width="1.18661" stroke-miterlimit="10"/>
<defs>
<linearGradient id="paint0_linear" x1="321.358" y1="114.357" x2="321.358" y2="64.192" gradientUnits="userSpaceOnUse">
<stop stop-color="#808080" stop-opacity="0.25"/>
<stop offset="0.54" stop-color="#808080" stop-opacity="0.12"/>
<stop offset="1" stop-color="#808080" stop-opacity="0.1"/>
</linearGradient>
<linearGradient id="paint1_linear" x1="99827.3" y1="307093" x2="99827.3" y2="54181.2" gradientUnits="userSpaceOnUse">
<stop stop-color="#808080" stop-opacity="0.25"/>
<stop offset="0.54" stop-color="#808080" stop-opacity="0.12"/>
<stop offset="1" stop-color="#808080" stop-opacity="0.1"/>
</linearGradient>
</defs>
</svg>
